<svg width="317" height="135" viewBox="0 0 317 135" fill="none" xmlns="http://www.w3.org/2000/svg">
<path d="M0 133.96V82.5871H12.8244C20.9318 82.5871 24.9118 87.0639 24.9118 95.2836V121.264C24.9118 129.483 20.9318 133.96 12.8244 133.96H0ZM12.677 89.9261H8.10738V126.621H12.677C15.2566 126.621 16.8044 125.3 16.8044 121.631V94.9166C16.8044 91.2471 15.2566 89.9261 12.677 89.9261ZM37.6772 82.5871H45.7846V122.218C45.7846 125.887 47.406 127.208 49.9857 127.208C52.5653 127.208 54.1868 125.887 54.1868 122.218V82.5871H61.8519V121.704C61.8519 129.924 57.7245 134.621 49.7646 134.621C41.8046 134.621 37.6772 129.924 37.6772 121.704V82.5871ZM91.2006 114.805H98.8658V121.631C98.8658 129.85 94.7384 134.547 86.7784 134.547C78.8184 134.547 74.6911 129.85 74.6911 121.631V94.9166C74.6911 86.697 78.8184 82 86.7784 82C94.7384 82 98.8658 86.697 98.8658 94.9166V99.9071H91.2006V94.4029C91.2006 90.7334 89.5792 89.339 86.9995 89.339C84.4199 89.339 82.7984 90.7334 82.7984 94.4029V122.144C82.7984 125.814 84.4199 127.135 86.9995 127.135C89.5792 127.135 91.2006 125.814 91.2006 122.144V114.805ZM130.278 133.96L122.392 113.484L119.886 118.181V133.96H111.779V82.5871H119.886V104.824H120.033L130.499 82.5871H138.607L127.33 105.485L138.607 133.96H130.278ZM147.908 89.9261V82.5871H172.967V89.9261H164.491V133.96H156.384V89.9261H147.908ZM199.663 82.5871L207.917 133.96H199.736L198.336 124.64H188.386L186.986 133.96H179.542L187.796 82.5871H199.663ZM193.25 91.6875L189.418 117.668H197.23L193.398 91.6875H193.25ZM218.619 94.9166C218.619 86.697 222.673 82 230.559 82C238.445 82 242.499 86.697 242.499 94.9166V96.5312H234.834V94.4029C234.834 90.7334 233.36 89.339 230.78 89.339C228.201 89.339 226.726 90.7334 226.726 94.4029C226.726 98.1458 228.348 100.935 233.655 105.558C240.435 111.503 242.573 115.759 242.573 121.631C242.573 129.85 238.445 134.547 230.485 134.547C222.525 134.547 218.398 129.85 218.398 121.631V118.475H226.063V122.144C226.063 125.814 227.685 127.135 230.264 127.135C232.844 127.135 234.465 125.814 234.465 122.144C234.465 118.401 232.844 115.613 227.537 110.989C220.757 105.044 218.619 100.788 218.619 94.9166ZM273.69 133.96L265.804 113.484L263.298 118.181V133.96H255.191V82.5871H263.298V104.824H263.446L273.911 82.5871H282.019L270.742 105.485L282.019 133.96H273.69ZM292.278 94.9166C292.278 86.697 296.332 82 304.218 82C312.105 82 316.158 86.697 316.158 94.9166V96.5312H308.493V94.4029C308.493 90.7334 307.019 89.339 304.439 89.339C301.86 89.339 300.386 90.7334 300.386 94.4029C300.386 98.1458 302.007 100.935 307.314 105.558C314.095 111.503 316.232 115.759 316.232 121.631C316.232 129.85 312.105 134.547 304.145 134.547C296.185 134.547 292.057 129.85 292.057 121.631V118.475H299.722V122.144C299.722 125.814 301.344 127.135 303.923 127.135C306.503 127.135 308.125 125.814 308.125 122.144C308.125 118.401 306.503 115.613 301.196 110.989C294.416 105.044 292.278 100.788 292.278 94.9166Z" fill="white"/>
<path d="M196.485 64.7432C196.201 64.7432 195.914 64.6659 195.666 64.5022C195.137 64.1548 194.883 63.5112 195.035 62.8989L197.689 52.2209H187.396C186.691 52.2209 186.079 51.7328 185.935 51.0425L177.032 8.83908C176.946 8.42544 177.035 7.99692 177.286 7.65767C177.534 7.31843 177.914 7.09822 178.335 7.05283L244.146 0.00976338C244.6 -0.0438017 245.058 0.125821 245.377 0.450188C245.697 0.774554 245.849 1.23581 245.786 1.68516L239.931 44.9769C239.83 45.715 239.2 46.2685 238.45 46.2685H221.275L197.396 64.4367C197.124 64.642 196.804 64.7432 196.485 64.7432Z" fill="#34B4C7"/>
<g clip-path="url(#clip0_10_22)">
<path d="M208.927 19.007C208.464 19.0887 208.052 19.3512 207.782 19.7366C207.512 20.122 207.406 20.5988 207.488 21.0622C207.57 21.5256 207.832 21.9375 208.218 22.2074C208.603 22.4773 209.08 22.583 209.543 22.5013C210.007 22.4196 210.419 22.1571 210.688 21.7717C210.958 21.3863 211.064 20.9094 210.982 20.4461C210.901 19.9827 210.638 19.5708 210.253 19.3009C209.867 19.031 209.391 18.9253 208.927 19.007ZM210.058 15.2047C211.603 14.9324 213.192 15.2848 214.477 16.1844C215.762 17.0839 216.636 18.457 216.909 20.0016C217.258 21.9816 216.576 23.9033 215.258 25.2165C217.129 25.0667 219.277 25.1205 221.533 25.7915C225.335 26.9225 226.089 24.3877 226.089 24.3877C226.089 24.3877 226.772 35.0757 219.784 36.308L212.796 37.5402C212.796 37.5402 206.972 38.5671 205.945 32.7434C205.329 29.2492 208.618 27.4683 207.042 25.3442C202.383 26.1657 201.664 22.0891 201.664 22.0891C202.932 22.4661 204.376 22.2114 205.189 21.6477C204.877 18.5803 206.983 15.7469 210.058 15.2047Z" fill="#F4F4F4"/>
</g>
<defs>
<clipPath id="clip0_10_22">
<rect width="28.3851" height="28.3851" fill="white" transform="translate(198 14.929) rotate(-10)"/>
</clipPath>
</defs>
</svg>
