<svg width="69" height="65" viewBox="0 0 69 65" fill="none" xmlns="http://www.w3.org/2000/svg">
<path d="M19.4847 64.7432C19.2008 64.7432 18.9139 64.6659 18.6658 64.5022C18.1368 64.1548 17.8828 63.5112 18.0352 62.8989L20.6891 52.2209H10.3965C9.69118 52.2209 9.07852 51.7328 8.93507 51.0425L0.032175 8.83908C-0.054493 8.42544 0.0351635 7.99692 0.286202 7.65767C0.534252 7.31843 0.913798 7.09822 1.33518 7.05283L67.1461 0.00976338C67.5996 -0.0438017 68.0576 0.125821 68.3774 0.450188C68.6972 0.774554 68.8488 1.23581 68.7861 1.68516L62.9315 44.9769C62.8299 45.715 62.2001 46.2685 61.4499 46.2685H44.2747L20.3962 64.4367C20.1242 64.642 19.8044 64.7432 19.4847 64.7432Z" fill="#34B4C7"/>
<g clip-path="url(#clip0_7_4)">
<path d="M31.9272 19.007C31.4638 19.0887 31.0519 19.3512 30.782 19.7366C30.5121 20.122 30.4064 20.5988 30.4881 21.0622C30.5698 21.5256 30.8323 21.9375 31.2177 22.2074C31.6031 22.4773 32.08 22.583 32.5433 22.5013C33.0067 22.4196 33.4186 22.1571 33.6885 21.7717C33.9584 21.3863 34.0641 20.9094 33.9824 20.4461C33.9007 19.9827 33.6382 19.5708 33.2528 19.3009C32.8674 19.031 32.3906 18.9253 31.9272 19.007ZM33.0582 15.2047C34.6027 14.9324 36.1922 15.2848 37.4769 16.1844C38.7617 17.0839 39.6364 18.457 39.9088 20.0016C40.2579 21.9816 39.5759 23.9033 38.2583 25.2165C40.1294 25.0667 42.2765 25.1205 44.5326 25.7915C48.3349 26.9225 49.0888 24.3877 49.0888 24.3877C49.0888 24.3877 49.7725 35.0757 42.784 36.308L35.7956 37.5402C35.7956 37.5402 29.9719 38.5671 28.945 32.7434C28.3289 29.2492 31.6177 27.4683 30.0422 25.3442C25.3832 26.1657 24.6644 22.0891 24.6644 22.0891C25.9319 22.4661 27.3761 22.2114 28.1895 21.6477C27.8768 18.5803 29.9833 15.7469 33.0582 15.2047Z" fill="#F4F4F4"/>
</g>
<defs>
<clipPath id="clip0_7_4">
<rect width="28.3851" height="28.3851" fill="white" transform="translate(21 14.929) rotate(-10)"/>
</clipPath>
</defs>
</svg>
