<svg width="172" height="29" viewBox="0 0 172 29" fill="none" xmlns="http://www.w3.org/2000/svg">
<path d="M0 28.2613V0.319337H6.97525C11.3849 0.319337 13.5496 2.75428 13.5496 7.225V21.3557C13.5496 25.8264 11.3849 28.2613 6.97525 28.2613H0ZM6.89507 4.31105H4.40964V24.2696H6.89507C8.29814 24.2696 9.13998 23.5511 9.13998 21.5552V7.02541C9.13998 5.02956 8.29814 4.31105 6.89507 4.31105ZM20.4928 0.319337H24.9024V21.8746C24.9024 23.8704 25.7844 24.5889 27.1874 24.5889C28.5905 24.5889 29.4724 23.8704 29.4724 21.8746V0.319337H33.6415V21.5952C33.6415 26.0659 31.3966 28.6206 27.0672 28.6206C22.7377 28.6206 20.4928 26.0659 20.4928 21.5952V0.319337ZM49.6044 17.843H53.7736V21.5552C53.7736 26.026 51.5287 28.5807 47.1992 28.5807C42.8697 28.5807 40.6248 26.026 40.6248 21.5552V7.02541C40.6248 2.5547 42.8697 0 47.1992 0C51.5287 0 53.7736 2.5547 53.7736 7.02541V9.73978H49.6044V6.74599C49.6044 4.75014 48.7225 3.99171 47.3195 3.99171C45.9164 3.99171 45.0345 4.75014 45.0345 6.74599V21.8347C45.0345 23.8305 45.9164 24.549 47.3195 24.549C48.7225 24.549 49.6044 23.8305 49.6044 21.8347V17.843ZM70.8589 28.2613L66.5695 17.1244L65.2066 19.6791V28.2613H60.7969V0.319337H65.2066V12.4142H65.2867L70.9792 0.319337H75.3888L69.2554 12.7735L75.3888 28.2613H70.8589ZM80.4479 4.31105V0.319337H94.0777V4.31105H89.4676V28.2613H85.058V4.31105H80.4479ZM108.597 0.319337L113.087 28.2613H108.637L107.876 23.1918H102.464L101.702 28.2613H97.6535L102.143 0.319337H108.597ZM105.11 5.26906L103.025 19.3997H107.275L105.19 5.26906H105.11ZM118.908 7.02541C118.908 2.5547 121.113 0 125.402 0C129.692 0 131.896 2.5547 131.896 7.02541V7.90359H127.727V6.74599C127.727 4.75014 126.925 3.99171 125.522 3.99171C124.119 3.99171 123.318 4.75014 123.318 6.74599C123.318 8.78177 124.2 10.2986 127.086 12.8134C130.774 16.0467 131.936 18.3619 131.936 21.5552C131.936 26.026 129.692 28.5807 125.362 28.5807C121.033 28.5807 118.788 26.026 118.788 21.5552V19.8388H122.957V21.8347C122.957 23.8305 123.839 24.549 125.242 24.549C126.645 24.549 127.527 23.8305 127.527 21.8347C127.527 19.7989 126.645 18.282 123.759 15.7673C120.07 12.534 118.908 10.2188 118.908 7.02541ZM148.861 28.2613L144.572 17.1244L143.209 19.6791V28.2613H138.799V0.319337H143.209V12.4142H143.289L148.982 0.319337H153.391L147.258 12.7735L153.391 28.2613H148.861ZM158.972 7.02541C158.972 2.5547 161.176 0 165.466 0C169.755 0 171.96 2.5547 171.96 7.02541V7.90359H167.791V6.74599C167.791 4.75014 166.989 3.99171 165.586 3.99171C164.183 3.99171 163.381 4.75014 163.381 6.74599C163.381 8.78177 164.263 10.2986 167.149 12.8134C170.837 16.0467 172 18.3619 172 21.5552C172 26.026 169.755 28.5807 165.426 28.5807C161.096 28.5807 158.851 26.026 158.851 21.5552V19.8388H163.02V21.8347C163.02 23.8305 163.902 24.549 165.305 24.549C166.708 24.549 167.59 23.8305 167.59 21.8347C167.59 19.7989 166.708 18.282 163.822 15.7673C160.134 12.534 158.972 10.2188 158.972 7.02541Z" fill="white"/>
</svg>
